# xmcd CD database file
#
# Track frame offsets:
#	150
#	32850
#	40836
#	65702
#	88140
#	93605
#	114386
#	136794
#	157731
#	172348
#	202555
#	206269
#	225942
#	245465
#	265073
#
# Disc length: 3770 seconds
#
# Revision: 0
# Processed by: cddbd v1.5.1PL0 Copyright (c) Steve Scherf et al.
# Submitted via: CDex 1.51
#
DISCID=bf0eb80f
DTITLE=Moveable Feast - Directions
DYEAR=1900
DGENRE=Jazz
TTITLE0=Sudden Moves
TTITLE1=Walkin' Life
TTITLE2=Two Things One
TTITLE3=Il Vino Rosso
TTITLE4=Buckdaddy
TTITLE5=Directions
TTITLE6=Directions 2
TTITLE7=Conversations
TTITLE8=Moments and Glimpses
TTITLE9=Seaworthy
TTITLE10=Buckdaddy (Reprise)
TTITLE11=Spider Theory
TTITLE12=Compassion
TTITLE13=Untitled Hidden Track 1
TTITLE14=Untitled Hidden Track 2
EXTD=
EXTT0=
EXTT1=
EXTT2=
EXTT3=
EXTT4=
EXTT5=
EXTT6=
EXTT7=
EXTT8=
EXTT9=
EXTT10=
EXTT11=
EXTT12=
EXTT13=
EXTT14=
PLAYORDER=
